<svg xmlns="http://www.w3.org/2000/svg" width="48" height="48" viewBox="0 0 512 512"><path fill="#D6E5E5" d="M399.3,112.7c-1-16.3-2.4-33.2-8.4-48.6c-4.5-11.5-11.9-20.8-24.2-21.1c-0.8,1-2.1,1.7-3.8,1.7c-49.2,0.2-98.3,8.4-146.5,17.9c-23,4.6-46.3,7.6-69.2,12.9c-0.6,0.1-1.2,0.3-1.7,0.4c0.3,0.2,0.5,0.5,0.8,0.7c9.7,9.2,13.9,22.8,16.6,35.5c3.4,15.6,4.6,31.7,4.8,47.7c0.5,40.6-8.3,80.4-15.1,120.2c-5.3,31.3-9.9,62.7-11.5,94.4c-1.2,23.6-2.4,51.9,11.8,72.2c10.2,14.6,33.5,23,50.1,15c17.6-8.5,18.2-31,9.7-46.2c-3.5-6.3-9-13.9-16.8-14.8c-8.4-1-15.4,7.1-18.1,14.2c-0.6,1.6-1.1,3.4-1.5,5.3c0.7,0.4,1.4,0.9,1.9,1.5c0.7,0.2,1.5,0.3,2.2,0.5c2.2,0.4,4.3,0.7,6.5,0.9c4.4,0.4,8.7,0.8,13.1,0.8c3.9,0,5.9,3.5,5.7,6.5c0.8,0.8,1.4,1.8,1.7,3.1c3.1,15.5-16.5,21.3-28.1,16.9c-14.6-5.5-16.6-23.6-12.6-36.7c2.8-9,9.4-17.9,18.1-21.9c0.1-2,1.1-4,3.3-5.1c5.1-2.4,10.5-3.9,16.1-4.9c-0.4-2.9,1.1-5.9,4.8-5.9c26.6,0,52.7,1.1,79-3.4c9.4-1.6,18.7-3.3,27.9-5.8c4-1.1,8-2.2,11.7-4c0.8-0.4,1.6-0.8,2.4-1.4c0.7-5.3,9-7.4,10.5-1.3c0.6,2.4,0.3,4.4-0.5,6.1c3.4-0.4,6.7-0.8,10.1-1.2c6.4-0.7,12.8-1,19.2-1.8c0,0,0,0,0.1,0c-5.7-16.5-7.1-34.3-6.2-51.7c0.5-9.2,1.3-18.7,3.7-27.7c2.7-10.1,5.7-20,8.8-30c4.6-15,9.1-30,12.4-45.4c3.1-14.5,8-28.7,10.6-43.4C401.8,147.9,400.3,129.9,399.3,112.7z M356.4,180c-1.4,5.1-7.4,5.4-11.6,7c-7.2,2.7-14.8,4-22.1,6c-9.1,2.5-18.3,3.9-27.6,5.4c-7.8,1.2-15.7,3-23.5,4.1c-10.6,1.4-21.2,3-32,3.1c-9,0.2-20.6,0.4-27.7-6.2c-5.2-4.8,2-13.1,7.3-8.3c5.6,5.2,17.7,3.7,24.6,3.3c9.1-0.5,18-1.8,27-2.9c7.2-0.9,14.4-2.7,21.6-3.8c7.8-1.2,15.9-1.9,23.5-4.1c7-2.1,14.2-3.3,21.2-5.5c2.3-0.7,4.5-1.7,6.8-2.4c0.2-0.1,0.4-0.1,0.7-0.2c0.8-1.3,2.1-2.2,4.2-2.2c1.8,0,3.2,0.1,4.9,0.7C355.6,174.8,356.9,177.8,356.4,180z M272.1,254.2c19.5-1.4,39.5-2.2,58.6-7c1-2.8,4-4.8,7.3-2.9c0.4,0.2,0.9,0.4,1.3,0.4c1.9,0.3,3.5,1.8,4.1,3.6l0.3,0.7c1.1,2.7-0.6,6.2-3.4,7c-21.8,6.5-44.9,7.6-67.4,9.2c-21.3,1.5-43.8,3.6-64.5-3c-6.7-2.1-4.6-13,2.1-10.8C230.3,257.7,251.7,255.6,272.1,254.2z M350.5,142.8c-17.5,11.8-40,13.6-60,18c-12,2.7-24.6,3.8-36.8,5.4c-13,1.7-26.1,2.9-39.3,3c-7.1,0-7.9-10.9-0.8-11c13.2-0.1,26.2-1.2,39.3-3c11.7-1.6,23.8-2.6,35.4-5.1c18.5-4,40-5.6,56.2-16.5C350.3,129.7,356.4,138.8,350.5,142.8z M201.6,126.8c24,0,48.1,1.5,72.2,0.2c23.1-1.2,47.2-4.2,67.7-15.8c6.1-3.5,12.3,5.6,6.2,9.1c-43.4,24.6-97.4,17.5-145.1,17.4C195.3,137.7,194.5,126.8,201.6,126.8z M210.8,286.3c0.1,0,0.2,0.1,0.4,0.1c-0.9-0.3,1.3,0.2,1.6,0.3c2,0.3,4,0.5,6,0.6c6.1,0.2,12.1-0.1,18.2-0.5c9.2-0.6,18.4-2,27.6-2.9c12.6-1.2,25.3-2.7,37.7-5.2c6.3-1.3,12.6-2.8,18.5-5.2c3.9-1.5,8.1-3.3,10.6-6.9c4.1-5.8,12.3,1.5,8.3,7.3c-7.1,9.9-22.9,12.9-34,15.2c-13.6,2.9-27.3,4.5-41.1,5.8c-10.8,1-21.4,2.7-32.3,3.1c-6.4,0.3-13,0.5-19.4-0.3c-3.9-0.5-8.7-1.3-10.9-4.9C198.3,286.9,206.9,280.9,210.8,286.3z M207.5,314.3c3.3,0.6,4.2,0.5,8.1,0.5c4.9,0,9.9-0.1,14.8-0.4c12.8-0.6,25.5-1.7,38.3-3.1c11.9-1.3,23.9-2.8,35.6-5.3c4-0.9,8.2-1.8,12-3.4c0.3-0.1,1.9-0.9,1.6-0.7c0.2-0.1,0.4-0.3,0.7-0.4c1.8-4.4,8.9-5.8,10.1-0.2c2,9-8.9,12.1-15.6,13.8c-12.5,3.2-25.4,5-38.3,6.5c-14.2,1.7-28.4,3-42.6,3.6c-8.7,0.4-18.1,1.4-26.7-0.2C198.5,323.8,200.6,313,207.5,314.3z M343.5,336.1c-1.9,2.3-5.5,3.1-8.3,3.8c-8.7,2.1-17.6,3-26.3,4.9c-15.7,3.5-31.4,7.5-47.4,8.9c-15.7,1.4-31.4,1.4-47.2,1.4c-7.1,0-7.9-11-0.8-11c13.3,0,26.6,0.1,39.8-0.8c13.4-0.9,26.3-3.3,39.4-6.2c9.3-2,18.5-4.1,27.9-5.5c3.4-0.5,6.7-1.1,10-1.9c1-0.3,2-0.5,3.1-0.8c0.9-2.1,2.9-3.5,5.7-2.6C343.8,327.6,346.9,332,343.5,336.1z M357.9,213.1c-1.2,3-5.9,4.2-8.6,5.1c-9.4,3.2-19,5.8-28.6,8.4c-15.7,4.2-31.9,7.2-48.2,8.3c-16.9,1.1-33.7,0.4-50.6,0.4c-7.1,0-7.9-11-0.8-11c27.2,0,54.3,1,81.2-4.4c10.6-2.1,21.1-5.1,31.4-8.2c3.4-1,6.8-2.1,10.2-3.2c1.1-0.4,2.2-0.7,3.3-1.1c0.7-1.5,2.1-2.6,4.4-2.5C356.3,204.9,359.8,208,357.9,213.1z"/><path fill="#BCBCBC" d="M150.8 107.7h-16.2c-.4 0-.9 0-1.2-.1-1.3 8.9.1 19.8-1.6 29.2 7.7-1.6 16-1.7 23.3-4.6C154.1 124.2 153 115.8 150.8 107.7zM196.6 434.7c-5.3 0-13.6-.3-19.9-1.9.9 2.7 2.6 5 5.2 6.5C186.4 441.8 197.4 441.6 196.6 434.7z"/><path fill="#BCBCBC" d="M145.2 93.5c-5.1-9.4-11.9-15.4-22.4-11.9-15.3 5.1-25.7 23.2-25.8 39-.1 8.2 2.4 15.9 9.9 20.1 2.3 1.3 6.5 3.6 8.6 2.9 1.8-.6 2.4-1.3 3.4-3.5 5.2-11.7 1.3-25.4 4.1-37.6.8-3.5 4-4.7 6.7-4.1.8-1.1 2.1-1.8 3.9-1.8h13.1C146.3 95.7 145.8 94.6 145.2 93.5zM391.5 365.4c-.2.5-.5 1-.9 1.5-3.5 4.1-9.5 5.4-14.5 6.3-6.6 1.2-13.3 1.7-20 2.2-19 1.6-37.8 5.3-56.7 8-20.1 3-40.3 6.1-60.6 6.9-10.6.4-22 .2-32.7 2.2 8.5 4.5 14.8 13.4 18.4 22 7 16.5 6.5 36.2-6.2 49.4 30.8-.4 61.6 2.2 92.4.7 31-1.5 68-4.6 92.9-25.4 11-9.1 17.6-21.9 19.3-36C425 385.3 412.3 361.2 391.5 365.4z"/><path fill="#010101" d="M425,369.9c-8.5-12.7-22.6-18.1-37.4-14.9c-2.1,0.4-3.2,1.7-3.6,3.2c-0.6,0.3-1.2,0.8-1.8,1.4c-0.4,0.4-0.9,0.8-1.4,1.1l-0.1-0.1c-0.3-0.6-0.6-1-1-1.4c-8.5-24.9-7.5-53.7-0.6-78.7c4.1-14.9,9-29.6,13.3-44.5c4.3-14.9,7.2-30,11.2-44.9c3.8-14.2,7.4-28.3,7.9-43c0.2-7.2-0.4-14.6-0.7-21.8c-0.5-16.2-1.5-32.6-4.8-48.5C401.4,55.2,389.4,29,362,32.3c-1.4,0.2-2.5,0.7-3.3,1.5c-50.1,0.5-100,9.3-149,19c-11.8,2.3-23.6,4.1-35.5,6.1c-6.1,1.1-12.2,2.2-18.2,3.5c-4.6,0.9-9.4,2.5-14.1,2.9c-6,0.6-12,1.9-17.9,3.1c-3.9,0.8-12.2,1.4-14.1,5.9c-0.2,0.5-0.3,1-0.4,1.4C95.1,85,87,103.9,86.1,120.5c-0.6,10.5,3.4,21.3,12,27.7c6.5,4.8,16.8,9.3,24.3,4.5c0.5-0.2,1.1-0.5,1.7-0.9c8.9-6.9,21.4-5.3,32-8.3c0.9,12.3,0.9,24.7,0.4,37c-0.7,16.8-3.7,33.4-6.5,50c-5.2,31.7-11.3,63.3-15.5,95.2c-3.6,27.5-6.5,56.1-4.2,83.9c1,12.3,3.7,24.7,9.2,35.7c5,10,12.2,17.3,21.9,22.9c11.8,6.8,26.9,9.5,40.1,5.7c1,0.9,2.3,1.4,3.9,1.4c31.3-1.5,62.8,1.4,94.2,0.7c33.4-0.8,69.7-3.5,99.4-20.3c18-10.2,30.6-27,34.2-47.5C435.6,394.9,432.5,381.1,425,369.9z M129.8,98.6c-2.7-0.6-5.9,0.6-6.7,4.1c-2.8,12.2,1,25.8-4.1,37.6c-0.9,2.1-1.6,2.9-3.4,3.5c-2.1,0.7-6.4-1.7-8.6-2.9c-7.5-4.2-10-11.9-9.9-20.1c0.1-15.8,10.4-33.9,25.8-39c10.5-3.5,17.3,2.4,22.4,11.9c0.6,1.1,1.1,2.2,1.6,3.3h-13.1C131.9,96.8,130.6,97.5,129.8,98.6z M131.7,136.9c1.8-9.5,0.3-20.3,1.6-29.2c0.4,0.1,0.8,0.1,1.2,0.1h16.2c2.2,8,3.4,16.5,4.2,24.5C147.7,135.2,139.5,135.3,131.7,136.9z M203,461.6c-16.6,8-39.9-0.4-50.1-15c-14.2-20.4-12.9-48.6-11.8-72.2c1.6-31.7,6.2-63.1,11.5-94.4c6.8-39.9,15.6-79.6,15.1-120.2c-0.2-16-1.5-32-4.8-47.7c-2.7-12.7-7-26.3-16.6-35.5c-0.3-0.2-0.5-0.5-0.8-0.7c0.6-0.1,1.2-0.2,1.7-0.4c22.9-5.2,46.2-8.3,69.2-12.9c48.1-9.5,97.2-17.7,146.5-17.9c1.8,0,3-0.7,3.8-1.7c12.3,0.3,19.7,9.6,24.2,21.1c6,15.3,7.5,32.3,8.4,48.6c1,17.2,2.5,35.2-0.6,52.2c-2.6,14.6-7.5,28.8-10.6,43.4c-3.3,15.4-7.7,30.4-12.4,45.4c-3.1,10-6.1,19.9-8.8,30c-2.4,9-3.2,18.4-3.7,27.7c-0.9,17.4,0.5,35.2,6.2,51.7c0,0,0,0-0.1,0c-6.4,0.8-12.8,1.1-19.2,1.8c-3.4,0.3-6.7,0.8-10.1,1.2c0.9-1.7,1.1-3.7,0.5-6.1c-1.6-6-9.8-3.9-10.5,1.3c-0.8,0.6-1.6,1-2.4,1.4c-3.7,1.7-7.8,2.9-11.7,4c-9.2,2.5-18.5,4.2-27.9,5.8c-26.3,4.5-52.5,3.4-79,3.4c-3.7,0-5.2,3-4.8,5.9c-5.6,1-11,2.5-16.1,4.9c-2.2,1.1-3.2,3.1-3.3,5.1c-8.7,4-15.3,12.9-18.1,21.9c-4,13.1-2,31.2,12.6,36.7c11.6,4.4,31.3-1.4,28.1-16.9c-0.3-1.3-0.9-2.3-1.7-3.1c0.2-3-1.8-6.4-5.7-6.5c-4.4,0-8.8-0.3-13.1-0.8c-2.2-0.2-4.4-0.5-6.5-0.9c-0.7-0.1-1.5-0.3-2.2-0.5c-0.5-0.6-1.1-1.2-1.9-1.5c0.4-1.9,0.9-3.8,1.5-5.3c2.7-7.1,9.7-15.2,18.1-14.2c7.8,0.9,13.3,8.5,16.8,14.8C221.2,430.6,220.6,453.2,203,461.6z M176.7,432.8c6.3,1.7,14.6,1.9,19.9,1.9c0.8,6.9-10.1,7.1-14.7,4.6C179.3,437.9,177.6,435.5,176.7,432.8z M422.8,403.2c-1.7,14.1-8.3,26.9-19.3,36c-24.9,20.7-61.9,23.9-92.9,25.4c-30.8,1.5-61.6-1.1-92.4-0.7c12.7-13.1,13.2-32.9,6.2-49.4c-3.7-8.6-9.9-17.5-18.4-22c10.7-2,22.2-1.7,32.7-2.2c20.3-0.8,40.5-4,60.6-6.9c18.8-2.8,37.7-6.4,56.7-8c6.7-0.6,13.4-1,20-2.2c5.1-0.9,11-2.2,14.5-6.3c0.4-0.5,0.7-1,0.9-1.5C412.3,361.2,425,385.3,422.8,403.2z"/><path fill="#010101" d="M341.4 111.2c-20.4 11.6-44.6 14.6-67.7 15.8-24 1.2-48.1-.2-72.2-.2-7.1 0-6.2 11 .8 11 47.8.1 101.7 7.2 145.1-17.4C353.7 116.8 347.5 107.7 341.4 111.2zM344.4 133.7c-16.1 10.9-37.6 12.5-56.2 16.5-11.6 2.5-23.7 3.6-35.4 5.1-13 1.7-26.1 2.9-39.3 3-7.1 0-6.2 11 .8 11 13.2-.1 26.2-1.3 39.3-3 12.2-1.6 24.8-2.8 36.8-5.4 20.1-4.4 42.6-6.2 60-18C356.4 138.8 350.3 129.7 344.4 133.7zM353.4 174c-1.7-.6-3.1-.7-4.9-.7-2.1 0-3.4.9-4.2 2.2-.2.1-.4.1-.7.2-2.3.7-4.5 1.7-6.8 2.4-7 2.2-14.2 3.4-21.2 5.5-7.5 2.3-15.7 2.9-23.5 4.1-7.2 1.1-14.4 2.8-21.6 3.8-9 1.2-17.9 2.4-27 2.9-6.9.4-19 1.9-24.6-3.3-5.2-4.8-12.5 3.5-7.3 8.3 7.1 6.5 18.7 6.3 27.7 6.2 10.7-.2 21.4-1.7 32-3.1 7.9-1 15.7-2.9 23.5-4.1 9.3-1.4 18.6-2.8 27.6-5.4 7.4-2.1 14.9-3.3 22.1-6 4.2-1.6 10.2-1.9 11.6-7C356.9 177.8 355.6 174.8 353.4 174zM351.5 204.8c-2.3-.1-3.7 1-4.4 2.5-1.1.4-2.2.8-3.3 1.1-3.4 1.1-6.8 2.2-10.2 3.2-10.3 3.2-20.9 6.1-31.4 8.2-26.9 5.4-53.9 4.5-81.2 4.4-7.1 0-6.2 11 .8 11 16.9 0 33.7.7 50.6-.4 16.3-1 32.5-4 48.2-8.3 9.6-2.6 19.2-5.2 28.6-8.4 2.7-.9 7.4-2.1 8.6-5.1C359.8 208 356.3 204.9 351.5 204.8zM343.7 248.9l-.3-.7c-.7-1.7-2.2-3.3-4.1-3.6-.5 0-.9-.1-1.3-.4-3.3-2-6.3 0-7.3 2.9-19.1 4.8-39.1 5.6-58.6 7-20.4 1.4-41.7 3.5-61.5-2.8-6.7-2.2-8.8 8.7-2.1 10.8 20.7 6.6 43.2 4.5 64.5 3 22.5-1.6 45.6-2.7 67.4-9.2C343.1 255.1 344.7 251.6 343.7 248.9zM331.3 266.6c-2.5 3.6-6.7 5.3-10.6 6.9-6 2.3-12.3 3.9-18.5 5.2-12.4 2.5-25.1 4-37.7 5.2-9.2.9-18.3 2.3-27.6 2.9-6 .4-12.1.6-18.2.5-2-.1-4-.3-6-.6-.2 0-2.5-.6-1.6-.3-.2-.1-.3-.1-.4-.1-3.9-5.3-12.5.7-8.8 6.6 2.2 3.6 7.1 4.5 10.9 4.9 6.4.8 12.9.6 19.4.3 10.9-.5 21.5-2.1 32.3-3.1 13.8-1.3 27.6-3 41.1-5.8 11.1-2.3 26.9-5.3 34-15.2C343.7 268.1 335.4 260.8 331.3 266.6zM328.7 301.4c-1.2-5.6-8.3-4.2-10.1.2-.2.1-.4.3-.7.4.3-.2-1.3.6-1.6.7-3.9 1.5-8 2.5-12 3.4-11.7 2.6-23.7 4-35.6 5.3-12.7 1.4-25.5 2.5-38.3 3.1-4.9.2-9.9.4-14.8.4-3.8 0-4.8.1-8.1-.5-7-1.3-9.1 9.5-2.1 10.8 8.6 1.6 18.1.7 26.7.2 14.2-.7 28.5-2 42.6-3.6 12.8-1.5 25.7-3.3 38.3-6.5C319.7 313.5 330.7 310.5 328.7 301.4zM339.5 326.3c-2.9-.9-4.9.6-5.7 2.6-1 .3-2 .6-3.1.8-3.3.8-6.7 1.4-10 1.9-9.4 1.4-18.6 3.5-27.9 5.5-13.1 2.8-26 5.2-39.4 6.2-13.2.9-26.6.8-39.8.8-7.1 0-6.2 11 .8 11 15.7 0 31.5 0 47.2-1.4 16-1.4 31.7-5.4 47.4-8.9 8.7-1.9 17.6-2.8 26.3-4.9 2.8-.7 6.4-1.5 8.3-3.8C346.9 332 343.8 327.6 339.5 326.3z"/></svg>